<?xml version="1.0" encoding="utf-8"?>

<!-- Uploaded to: SVG Repo, www.svgrepo.com, Generator: SVG Repo Mixer Tools -->
<svg version="1.1" id="Icons" xmlns="http://www.w3.org/2000/svg" xmlns:xlink="http://www.w3.org/1999/xlink" 
	 viewBox="0 0 32 32" xml:space="preserve">
<style type="text/css">
	.st0{fill:none;stroke:#000000;stroke-width:2;stroke-linecap:round;stroke-linejoin:round;stroke-miterlimit:10;}
</style>
<path d="M27,14H5c-0.4,0-0.7,0.1-1,0.2V8h12v4c0,0.6,0.4,1,1,1s1-0.4,1-1V5c0-1.7-1.3-3-3-3H5C3.3,2,2,3.3,2,5v12v10
	c0,1.7,1.3,3,3,3h22c1.7,0,3-1.3,3-3V17C30,15.3,28.7,14,27,14z M7,23c0,0.6-0.4,1-1,1s-1-0.4-1-1v-2c0-0.6,0.4-1,1-1s1,0.4,1,1V23z
	 M24,28H10V16h14V28z"/>
<path d="M19.9,5.1C22.8,5.5,25,8,25,11c0,0.4,0.3,0.8,0.7,0.9c0.1,0,0.2,0.1,0.3,0.1c0.3,0,0.6-0.1,0.8-0.4l3-4
	c0.3-0.4,0.2-1.1-0.2-1.4c-0.4-0.3-1.1-0.2-1.4,0.2l-1.6,2.1c-0.9-2.8-3.4-5-6.4-5.4C19.6,3,19.1,3.4,19,3.9C19,4.5,19.3,5,19.9,5.1
	z"/>
</svg>